<svg id="visual" viewBox="0 0 900 600" width="900" height="600" xmlns="http://www.w3.org/2000/svg" xmlns:xlink="http://www.w3.org/1999/xlink" version="1.1"><rect x="0" y="0" width="900" height="600" fill="#030202"></rect><path d="M0 385L129 421L257 361L386 388L514 405L643 359L771 377L900 383L900 601L771 601L643 601L514 601L386 601L257 601L129 601L0 601Z" fill="#ffe4c4"></path><path d="M0 436L129 416L257 443L386 424L514 457L643 427L771 419L900 411L900 601L771 601L643 601L514 601L386 601L257 601L129 601L0 601Z" fill="#cbb699"></path><path d="M0 470L129 472L257 438L386 444L514 499L643 448L771 500L900 485L900 601L771 601L643 601L514 601L386 601L257 601L129 601L0 601Z" fill="#9a8a70"></path><path d="M0 487L129 535L257 511L386 489L514 528L643 484L771 492L900 487L900 601L771 601L643 601L514 601L386 601L257 601L129 601L0 601Z" fill="#6c604a"></path><path d="M0 525L129 538L257 572L386 539L514 570L643 561L771 531L900 541L900 601L771 601L643 601L514 601L386 601L257 601L129 601L0 601Z" fill="#413927"></path></svg>