<svg id="visual" viewBox="0 0 1200 400" width="1200" height="400" xmlns="http://www.w3.org/2000/svg" xmlns:xlink="http://www.w3.org/1999/xlink" version="1.1"><rect x="0" y="0" width="1200" height="400" fill="#030202"></rect><path d="M0 250L120 291L240 256L360 293L480 278L600 231L720 275L840 259L960 268L1080 291L1200 260L1200 401L1080 401L960 401L840 401L720 401L600 401L480 401L360 401L240 401L120 401L0 401Z" fill="#797068"></path><path d="M0 307L120 257L240 254L360 292L480 275L600 264L720 283L840 271L960 300L1080 298L1200 259L1200 401L1080 401L960 401L840 401L720 401L600 401L480 401L360 401L240 401L120 401L0 401Z" fill="#877766"></path><path d="M0 303L120 299L240 300L360 318L480 284L600 300L720 298L840 281L960 315L1080 279L1200 288L1200 401L1080 401L960 401L840 401L720 401L600 401L480 401L360 401L240 401L120 401L0 401Z" fill="#957d64"></path><path d="M0 332L120 329L240 318L360 320L480 307L600 320L720 304L840 339L960 304L1080 332L1200 337L1200 401L1080 401L960 401L840 401L720 401L600 401L480 401L360 401L240 401L120 401L0 401Z" fill="#a38462"></path><path d="M0 333L120 347L240 348L360 326L480 327L600 340L720 324L840 347L960 322L1080 325L1200 327L1200 401L1080 401L960 401L840 401L720 401L600 401L480 401L360 401L240 401L120 401L0 401Z" fill="#b08b60"></path><path d="M0 343L120 369L240 359L360 362L480 370L600 352L720 367L840 355L960 352L1080 345L1200 369L1200 401L1080 401L960 401L840 401L720 401L600 401L480 401L360 401L240 401L120 401L0 401Z" fill="#bd925d"></path><path d="M0 376L120 376L240 366L360 381L480 382L600 384L720 364L840 382L960 377L1080 371L1200 381L1200 401L1080 401L960 401L840 401L720 401L600 401L480 401L360 401L240 401L120 401L0 401Z" fill="#c99a5a"></path></svg>