<svg id="visual" viewBox="0 0 1200 400" width="1200" height="400" xmlns="http://www.w3.org/2000/svg" xmlns:xlink="http://www.w3.org/1999/xlink" version="1.1"><rect x="0" y="0" width="1200" height="400" fill="#030202"></rect><path d="M0 160L120 225L240 171L360 229L480 205L600 130L720 201L840 175L960 190L1080 226L1200 176L1200 401L1080 401L960 401L840 401L720 401L600 401L480 401L360 401L240 401L120 401L0 401Z" fill="#797068"></path><path d="M0 252L120 172L240 166L360 227L480 201L600 182L720 214L840 195L960 240L1080 238L1200 174L1200 401L1080 401L960 401L840 401L720 401L600 401L480 401L360 401L240 401L120 401L0 401Z" fill="#877766"></path><path d="M0 245L120 239L240 240L360 269L480 215L600 240L720 237L840 211L960 265L1080 208L1200 222L1200 401L1080 401L960 401L840 401L720 401L600 401L480 401L360 401L240 401L120 401L0 401Z" fill="#957d64"></path><path d="M0 292L120 286L240 269L360 273L480 252L600 272L720 247L840 303L960 246L1080 292L1200 300L1200 401L1080 401L960 401L840 401L720 401L600 401L480 401L360 401L240 401L120 401L0 401Z" fill="#a38462"></path><path d="M0 294L120 316L240 317L360 282L480 284L600 305L720 279L840 316L960 275L1080 280L1200 283L1200 401L1080 401L960 401L840 401L720 401L600 401L480 401L360 401L240 401L120 401L0 401Z" fill="#b08b60"></path><path d="M0 309L120 352L240 335L360 340L480 353L600 323L720 347L840 329L960 324L1080 313L1200 351L1200 401L1080 401L960 401L840 401L720 401L600 401L480 401L360 401L240 401L120 401L0 401Z" fill="#bd925d"></path><path d="M0 362L120 362L240 346L360 370L480 372L600 376L720 343L840 371L960 364L1080 355L1200 370L1200 401L1080 401L960 401L840 401L720 401L600 401L480 401L360 401L240 401L120 401L0 401Z" fill="#c99a5a"></path></svg>