<svg id="visual" viewBox="0 0 2000 600" width="2000" height="600" xmlns="http://www.w3.org/2000/svg" xmlns:xlink="http://www.w3.org/1999/xlink" version="1.1"><rect x="0" y="0" width="2000" height="600" fill="#030202"></rect><path d="M0 385L286 421L571 361L857 388L1143 405L1429 359L1714 377L2000 383L2000 601L1714 601L1429 601L1143 601L857 601L571 601L286 601L0 601Z" fill="#ffe4c4"></path><path d="M0 436L286 416L571 443L857 424L1143 457L1429 427L1714 419L2000 411L2000 601L1714 601L1429 601L1143 601L857 601L571 601L286 601L0 601Z" fill="#cbb699"></path><path d="M0 470L286 472L571 438L857 444L1143 499L1429 448L1714 500L2000 485L2000 601L1714 601L1429 601L1143 601L857 601L571 601L286 601L0 601Z" fill="#9a8a70"></path><path d="M0 487L286 535L571 511L857 489L1143 528L1429 484L1714 492L2000 487L2000 601L1714 601L1429 601L1143 601L857 601L571 601L286 601L0 601Z" fill="#6c604a"></path><path d="M0 525L286 538L571 572L857 539L1143 570L1429 561L1714 531L2000 541L2000 601L1714 601L1429 601L1143 601L857 601L571 601L286 601L0 601Z" fill="#413927"></path></svg>