<svg id="visual" viewBox="0 0 1200 600" width="1200" height="600" xmlns="http://www.w3.org/2000/svg" xmlns:xlink="http://www.w3.org/1999/xlink" version="1.1"><rect x="0" y="0" width="1200" height="600" fill="#030202"></rect><path d="M0 416L171 355L343 424L514 357L686 437L857 421L1029 368L1200 440L1200 601L1029 601L857 601L686 601L514 601L343 601L171 601L0 601Z" fill="#6a625b"></path><path d="M0 396L171 439L343 431L514 459L686 423L857 422L1029 451L1200 400L1200 601L1029 601L857 601L686 601L514 601L343 601L171 601L0 601Z" fill="#7f6954"></path><path d="M0 451L171 469L343 450L514 510L686 457L857 467L1029 491L1200 468L1200 601L1029 601L857 601L686 601L514 601L343 601L171 601L0 601Z" fill="#92704c"></path><path d="M0 536L171 531L343 533L514 522L686 542L857 533L1029 502L1200 526L1200 601L1029 601L857 601L686 601L514 601L343 601L171 601L0 601Z" fill="#a57743"></path><path d="M0 532L171 566L343 566L514 566L686 535L857 549L1029 574L1200 568L1200 601L1029 601L857 601L686 601L514 601L343 601L171 601L0 601Z" fill="#b77e39"></path></svg>