<svg id="visual" viewBox="0 0 1000 600" width="1000" height="600" xmlns="http://www.w3.org/2000/svg" xmlns:xlink="http://www.w3.org/1999/xlink" version="1.1"><rect x="0" y="0" width="1000" height="600" fill="#030202"></rect><path d="M0 385L143 421L286 361L429 388L571 405L714 359L857 377L1000 383L1000 601L857 601L714 601L571 601L429 601L286 601L143 601L0 601Z" fill="#ffe4c4"></path><path d="M0 436L143 416L286 443L429 424L571 457L714 427L857 419L1000 411L1000 601L857 601L714 601L571 601L429 601L286 601L143 601L0 601Z" fill="#cbb699"></path><path d="M0 470L143 472L286 438L429 444L571 499L714 448L857 500L1000 485L1000 601L857 601L714 601L571 601L429 601L286 601L143 601L0 601Z" fill="#9a8a70"></path><path d="M0 487L143 535L286 511L429 489L571 528L714 484L857 492L1000 487L1000 601L857 601L714 601L571 601L429 601L286 601L143 601L0 601Z" fill="#6c604a"></path><path d="M0 525L143 538L286 572L429 539L571 570L714 561L857 531L1000 541L1000 601L857 601L714 601L571 601L429 601L286 601L143 601L0 601Z" fill="#413927"></path></svg>